<?xml version="1.0" encoding="iso-8859-1"?>
<!-- Generator: Adobe Illustrator 19.0.0, SVG Export Plug-In . SVG Version: 6.00 Build 0)  -->
<svg version="1.1" id="Capa_1" xmlns="http://www.w3.org/2000/svg" xmlns:xlink="http://www.w3.org/1999/xlink" x="0px" y="0px"
	 viewBox="0 0 65 65" style="enable-background:new 0 0 65 65;" xml:space="preserve">
<g>
	<path d="M63.953,52.5c-1.204,0-2.376-0.378-3.627-0.839c-0.792-0.291-1.61-0.592-2.465-0.778c-2.21-0.479-4.587-0.525-7.064-0.142
		c-2.487,0.387-5.05,1.181-7.834,2.427c-1.198,0.537-2.326,1.182-3.417,1.806c-0.913,0.522-1.786,1.008-2.691,1.446
		c-2.567-0.681-4.839-2.04-7.118-3.607c0.019,0,0.038,0.002,0.057,0.002c5.443,0,11.445-1.7,15.919-4.647l0.151-0.1
		C51.511,44.347,57.35,40.5,64,40.5v-2c-4.691,0-9.011,1.76-13,4.003v-3.1c1.894-0.356,3-1.754,3-3.903
		c0-0.277-0.022-0.568-0.058-0.863c1.158,0.179,2.342,0.419,3.462,0.817C59.418,36.167,61.514,36.5,64,36.5v-2
		c-2.252,0-4.135-0.296-5.927-0.932c-1.552-0.551-3.153-0.823-4.67-1.028C52.742,30.888,51.561,29.5,50,29.5
		c-1.54,0-2.709,1.349-3.375,2.972c-2.264-0.193-4.68-0.061-7.567,0.438c-2.439,0.422-4.864,1.298-7.206,2.606
		c-1.032,0.575-2.026,1.219-2.988,1.844c-1.255,0.815-2.44,1.583-3.716,2.22c-1.722,0.858-3.353,1.295-4.847,1.31
		c-1.492,0.003-2.844-0.531-4.3-1.099v-3.303c0.376-0.284,0.717-0.613,1-0.99C17.913,36.712,19.366,37.5,21,37.5
		c2.757,0,5-2.243,5-5c0-1.411-0.585-2.717-1.602-3.652C24.79,28.125,25,27.317,25,26.5c0-2.415-2-4.435-4-4.899
		c0-0.034,0-0.067,0-0.101c0-2.019-1.215-3.809-3.034-4.584C17.676,14.433,15.56,12.5,13,12.5s-4.676,1.933-4.966,4.416
		C6.215,17.691,5,19.481,5,21.5c0,0.033,0,0.066,0,0.101c-2,0.464-4.001,2.484-4.001,4.899c0,0.817,0.21,1.625,0.602,2.348
		C0.584,29.783,0,31.089,0,32.5c0,2.757,2.243,5,5,5c1.634,0,3.087-0.788,4-2.003c0.283,0.377,0.623,0.706,1,0.99v1.594
		c-1.586-0.301-3.144-0.028-4.282,0.314c-0.836,0.25-1.625,0.636-2.388,1.009C2.178,39.968,1.09,40.5,0,40.5v2
		c1.553,0,2.903-0.66,4.208-1.299c0.723-0.354,1.405-0.687,2.083-0.89c1-0.3,2.395-0.542,3.709-0.181v5.727
		c-0.075,0.01-0.148,0.013-0.223,0.023c-1.3,0.176-2.603,0.464-3.863,0.742C3.872,47.074,1.942,47.5,0,47.5v2
		c2.161,0,4.288-0.47,6.345-0.924c1.276-0.282,2.482-0.549,3.7-0.713c4.107-0.559,7.679-0.036,10.918,1.592
		c1.977,0.993,3.887,2.352,5.734,3.667c2.321,1.651,4.703,3.343,7.373,4.462c-4.584,1.667-9.545,2.394-14.37,3.091l-0.647,0.094
		C13.33,61.6,7.642,62.356,1,62.5H0v2h1.021c6.777-0.146,12.532-0.912,18.318-1.752l0.646-0.093
		c5.817-0.841,11.832-1.709,17.308-4.219c1.132-0.519,2.206-1.133,3.245-1.727c1.097-0.628,2.133-1.22,3.241-1.716
		c2.62-1.173,5.015-1.918,7.324-2.276c2.233-0.347,4.364-0.307,6.334,0.12c0.718,0.155,1.436,0.42,2.197,0.7
		c1.385,0.51,2.811,1.036,4.366,0.963h1v-2H63.953z M41,44.5c-1.383,0-2-0.617-2-2c0-1.932,1.174-4,2-4s2,2.068,2,4
		C43,43.883,42.383,44.5,41,44.5z M50,31.5c0.826,0,2,2.068,2,4c0,1.383-0.617,2-2,2s-2-0.617-2-2C48,33.568,49.174,31.5,50,31.5z
		 M9,31.5c-0.552,0-1,0.447-1,1c0,1.654-1.346,3-3,3s-3-1.346-3-3c0-1.056,0.551-2.015,1.475-2.566
		c0.252-0.15,0.426-0.404,0.474-0.694c0.048-0.29-0.034-0.587-0.224-0.812C3.394,28.038,3,27.388,3,26.5
		c0-1.654,1.346-3,2.938-3.003c0.034,0.005,0.134,0.016,0.168,0.017c0.318,0.024,0.621-0.125,0.819-0.373
		c0.199-0.247,0.268-0.574,0.187-0.881C7.036,21.967,7,21.726,7,21.5c0-1.364,0.93-2.555,2.261-2.895
		c0.455-0.116,0.768-0.532,0.753-1.001C10.011,17.546,10.005,17.491,10,17.5c0-1.654,1.346-3,3-3s3,1.346,3.003,2.931
		c-0.005,0.037-0.016,0.137-0.017,0.174c-0.015,0.469,0.298,0.885,0.752,1.001C18.07,18.945,19,20.136,19,21.5
		c0,0.226-0.036,0.467-0.113,0.76c-0.081,0.307-0.012,0.634,0.187,0.881c0.198,0.248,0.503,0.399,0.819,0.373
		c0.058-0.002,0.113-0.009,0.107-0.014c1.654,0,3,1.346,3,3c0,0.888-0.394,1.538-0.725,1.928c-0.19,0.225-0.273,0.521-0.224,0.812
		c0.048,0.29,0.222,0.544,0.474,0.694C23.449,30.485,24,31.444,24,32.5c0,1.654-1.346,3-3,3s-3-1.346-3-3c0-0.553-0.448-1-1-1
		s-1,0.447-1,1c0,1.654-1.346,3-3,3s-3-1.346-3-3C10,31.947,9.552,31.5,9,31.5z M12,45.69v-8.299c0.324,0.067,0.657,0.109,1,0.109
		s0.676-0.042,1-0.108v8.295C13.343,45.659,12.677,45.66,12,45.69z M16,45.86v-4.126c1.325,0.456,2.703,0.766,4.235,0.766
		c0.029,0,0.058,0,0.086,0c1.799,0,3.723-0.331,5.719-1.326c1.377-0.688,2.666-1.323,3.913-2.134
		c0.934-0.607,1.899-1.233,2.872-1.776c2.146-1.196,4.357-1.998,6.573-2.382c2.556-0.443,4.698-0.575,6.686-0.442
		C46.03,34.804,46,35.161,46,35.5c0,2.149,1.106,3.546,3,3.903v4.273c-1.458,0.891-2.87,1.821-4.236,2.721l-0.151,0.1
		c-0.819,0.54-1.698,1.029-2.612,1.475v-1.57c1.894-0.356,3-1.754,3-3.903c0-2.506-1.522-6-4-6s-4,3.494-4,6
		c0,2.149,1.106,3.546,3,3.903v2.447c-4.339,1.696-9.269,2.367-13.45,1.719c-1.503-1.052-3.053-2.079-4.689-2.902
		C20.036,46.751,18.075,46.15,16,45.86z"/>
	<path d="M12,27.5h1c0-1.654,1.346-3,3-3v-2c-2.07,0-3.849,1.265-4.608,3.062C9.476,25.857,8,27.502,8,29.5h2
		C10,28.397,10.897,27.5,12,27.5z"/>
	<path d="M43,21.5c0,0.553,0.448,1,1,1h19c0.552,0,1-0.447,1-1c0-3.309-2.691-6-6-6c-0.499,0-1.001,0.067-1.501,0.2
		c-1.482-1.405-3.451-2.2-5.499-2.2C46.589,13.5,43,17.089,43,21.5z M55.47,17.509c0.276,0.31,0.715,0.417,1.104,0.268
		c2.386-0.914,4.743,0.567,5.3,2.724h-16.79c0.478-2.834,2.949-5,5.917-5C52.7,15.5,54.329,16.232,55.47,17.509z"/>
	<path d="M38,16.5c1.187,0,2.341-0.263,3.429-0.779C41.778,15.555,42,15.203,42,14.817s-0.222-0.737-0.57-0.903
		C39.346,12.923,38,10.798,38,8.5s1.346-4.423,3.43-5.414C41.778,2.92,42,2.568,42,2.183c0-0.386-0.222-0.737-0.571-0.903
		C40.341,0.763,39.187,0.5,38,0.5c-4.411,0-8,3.589-8,8S33.589,16.5,38,16.5z M38,2.5c0.228,0,0.455,0.013,0.679,0.039
		C37.007,4.037,36,6.203,36,8.5s1.007,4.463,2.679,5.961C38.455,14.487,38.228,14.5,38,14.5c-3.309,0-6-2.691-6-6S34.691,2.5,38,2.5
		z"/>
	<rect x="53" y="0.5" width="2" height="2"/>
	<rect x="57" y="0.5" width="2" height="2"/>
	<rect x="61" y="0.5" width="2" height="2"/>
	<rect x="45" y="0.5" width="2" height="2"/>
	<rect x="49" y="0.5" width="2" height="2"/>
	<rect x="17" y="0.5" width="2" height="2"/>
	<rect x="21" y="0.5" width="2" height="2"/>
	<rect x="25" y="0.5" width="2" height="2"/>
	<rect x="29" y="0.5" width="2" height="2"/>
	<rect x="5" y="0.5" width="2" height="2"/>
	<rect x="9" y="0.5" width="2" height="2"/>
	<rect x="13" y="0.5" width="2" height="2"/>
	<rect x="1" y="0.5" width="2" height="2"/>
	<rect x="53" y="4.5" width="2" height="2"/>
	<rect x="57" y="4.5" width="2" height="2"/>
	<rect x="61" y="4.5" width="2" height="2"/>
	<rect x="41" y="4.5" width="2" height="2"/>
	<rect x="45" y="4.5" width="2" height="2"/>
	<rect x="49" y="4.5" width="2" height="2"/>
	<rect x="17" y="4.5" width="2" height="2"/>
	<rect x="21" y="4.5" width="2" height="2"/>
	<rect x="25" y="4.5" width="2" height="2"/>
	<rect x="5" y="4.5" width="2" height="2"/>
	<rect x="9" y="4.5" width="2" height="2"/>
	<rect x="13" y="4.5" width="2" height="2"/>
	<rect x="1" y="4.5" width="2" height="2"/>
	<rect x="53" y="8.5" width="2" height="2"/>
	<rect x="57" y="8.5" width="2" height="2"/>
	<rect x="61" y="8.5" width="2" height="2"/>
	<rect x="41" y="8.5" width="2" height="2"/>
	<rect x="45" y="8.5" width="2" height="2"/>
	<rect x="49" y="8.5" width="2" height="2"/>
	<rect x="17" y="8.5" width="2" height="2"/>
	<rect x="21" y="8.5" width="2" height="2"/>
	<rect x="25" y="8.5" width="2" height="2"/>
	<rect x="5" y="8.5" width="2" height="2"/>
	<rect x="9" y="8.5" width="2" height="2"/>
	<rect x="13" y="8.5" width="2" height="2"/>
	<rect x="1" y="8.5" width="2" height="2"/>
	<rect x="57" y="12.5" width="2" height="2"/>
	<rect x="61" y="12.5" width="2" height="2"/>
	<rect x="21" y="12.5" width="2" height="2"/>
	<rect x="25" y="12.5" width="2" height="2"/>
	<rect x="5" y="12.5" width="2" height="2"/>
	<rect x="1" y="12.5" width="2" height="2"/>
	<rect x="41" y="16.5" width="2" height="2"/>
	<rect x="29" y="16.5" width="2" height="2"/>
	<rect x="21" y="16.5" width="2" height="2"/>
	<rect x="25" y="16.5" width="2" height="2"/>
	<rect x="1" y="16.5" width="2" height="2"/>
	<rect x="29" y="20.5" width="2" height="2"/>
	<rect x="33" y="20.5" width="2" height="2"/>
	<rect x="37" y="20.5" width="2" height="2"/>
	<rect x="25" y="20.5" width="2" height="2"/>
	<rect x="53" y="24.5" width="2" height="2"/>
	<rect x="57" y="24.5" width="2" height="2"/>
	<rect x="61" y="24.5" width="2" height="2"/>
	<rect x="41" y="24.5" width="2" height="2"/>
	<rect x="45" y="24.5" width="2" height="2"/>
	<rect x="49" y="24.5" width="2" height="2"/>
	<rect x="29" y="24.5" width="2" height="2"/>
	<rect x="33" y="24.5" width="2" height="2"/>
	<rect x="37" y="24.5" width="2" height="2"/>
	<rect x="57" y="28.5" width="2" height="2"/>
	<rect x="61" y="28.5" width="2" height="2"/>
	<rect x="41" y="28.5" width="2" height="2"/>
	<rect x="29" y="28.5" width="2" height="2"/>
	<rect x="33" y="28.5" width="2" height="2"/>
	<rect x="37" y="28.5" width="2" height="2"/>
	<rect x="29" y="32.5" width="2" height="2"/>
	<rect x="54" y="54.5" width="2" height="2"/>
	<rect x="58" y="54.5" width="2" height="2"/>
	<rect x="46" y="54.5" width="2" height="2"/>
	<rect x="50" y="54.5" width="2" height="2"/>
	<rect x="62" y="43.5" width="2" height="2"/>
	<rect x="54" y="43.5" width="2" height="2"/>
	<rect x="56" y="36.5" width="2" height="2"/>
	<rect x="58" y="43.5" width="2" height="2"/>
	<rect x="62" y="47.5" width="2" height="2"/>
	<rect x="54" y="47.5" width="2" height="2"/>
	<rect x="50" y="47.5" width="2" height="2"/>
	<rect x="36" y="53.5" width="2" height="2"/>
	<rect x="58" y="47.5" width="2" height="2"/>
	<rect x="54" y="58.5" width="2" height="2"/>
	<rect x="58" y="58.5" width="2" height="2"/>
	<rect x="62" y="58.5" width="2" height="2"/>
	<rect x="42" y="58.5" width="2" height="2"/>
	<rect x="46" y="58.5" width="2" height="2"/>
	<rect x="50" y="58.5" width="2" height="2"/>
	<rect x="38" y="58.5" width="2" height="2"/>
	<rect x="54" y="62.5" width="2" height="2"/>
	<rect x="58" y="62.5" width="2" height="2"/>
	<rect x="62" y="62.5" width="2" height="2"/>
	<rect x="42" y="62.5" width="2" height="2"/>
	<rect x="46" y="62.5" width="2" height="2"/>
	<rect x="50" y="62.5" width="2" height="2"/>
	<rect x="38" y="62.5" width="2" height="2"/>
	<rect x="30" y="62.5" width="2" height="2"/>
	<rect x="34" y="62.5" width="2" height="2"/>
	<rect x="26" y="62.5" width="2" height="2"/>
	<rect x="16" y="54.5" width="2" height="2"/>
	<rect x="20" y="54.5" width="2" height="2"/>
	<rect x="24" y="54.5" width="2" height="2"/>
	<rect x="4" y="54.5" width="2" height="2"/>
	<rect x="8" y="54.5" width="2" height="2"/>
	<rect x="12" y="54.5" width="2" height="2"/>
	<rect y="54.5" width="2" height="2"/>
	<rect x="16" y="50.5" width="2" height="2"/>
	<rect x="4" y="50.5" width="2" height="2"/>
	<rect x="8" y="50.5" width="2" height="2"/>
	<rect x="12" y="50.5" width="2" height="2"/>
	<rect x="30" y="44.5" width="2" height="2"/>
	<rect x="34" y="44.5" width="2" height="2"/>
	<rect x="22" y="44.5" width="2" height="2"/>
	<rect x="26" y="44.5" width="2" height="2"/>
	<rect x="30" y="40.5" width="2" height="2"/>
	<rect x="34" y="40.5" width="2" height="2"/>
	<rect y="50.5" width="2" height="2"/>
	<rect x="4" y="43.5" width="2" height="2"/>
	<rect y="43.5" width="2" height="2"/>
	<rect x="4" y="58.5" width="2" height="2"/>
	<rect x="8" y="58.5" width="2" height="2"/>
	<rect x="12" y="58.5" width="2" height="2"/>
	<rect y="58.5" width="2" height="2"/>
</g>
<g>
</g>
<g>
</g>
<g>
</g>
<g>
</g>
<g>
</g>
<g>
</g>
<g>
</g>
<g>
</g>
<g>
</g>
<g>
</g>
<g>
</g>
<g>
</g>
<g>
</g>
<g>
</g>
<g>
</g>
</svg>
